<svg xmlns:xlink="http://www.w3.org/1999/xlink" width="32" xmlns="http://www.w3.org/2000/svg" height="32" id="screenshot-6457145b-4ebc-11ed-be16-f3c9284c3c9a" viewBox="0 0 32 32" style="-webkit-print-color-adjust: exact;" fill="none" version="1.1"><g xmlns:xlink="http://www.w3.org/1999/xlink" xml:space="preserve" x="0px" id="shape-6457145b-4ebc-11ed-be16-f3c9284c3c9a" style="fill: rgb(0, 0, 0);" ry="0" rx="0" y="0px" version="1.1"><g id="shape-6457145f-4ebc-11ed-be16-f3c9284c3c9a" rx="0" ry="0" style="fill: rgb(0, 0, 0);"><g id="shape-6457146f-4ebc-11ed-be16-f3c9284c3c9a" rx="0" ry="0" style="fill: rgb(0, 0, 0);"><g id="shape-64571470-4ebc-11ed-be16-f3c9284c3c9a"><g id="fills-64571470-4ebc-11ed-be16-f3c9284c3c9a"><path rx="0" ry="0" d="M15.998,0C7.164,0,0,7.115,0,15.893C0,22.913,4.584,28.869,10.944,30.972C11.744,31.119,12.036,30.628,12.036,30.207C12.036,29.829,12.022,28.83,12.014,27.504C7.564,28.463,6.624,25.373,6.624,25.373C5.898,23.537,4.848,23.048,4.848,23.048C3.394,22.062,4.956,22.082,4.956,22.082C6.562,22.195,7.406,23.721,7.406,23.721C8.834,26.148,11.152,25.448,12.064,25.04C12.208,24.013,12.622,23.313,13.08,22.915C9.528,22.514,5.792,21.15,5.792,15.062C5.792,13.326,6.416,11.908,7.44,10.796C7.274,10.394,6.726,8.777,7.596,6.591C7.596,6.591,8.94,6.164,11.996,8.219C13.272,7.867,14.64,7.691,16.002,7.685C17.36,7.693,18.73,7.867,20.008,8.221C23.062,6.166,24.404,6.593,24.404,6.593C25.276,8.781,24.728,10.396,24.564,10.798C25.59,11.91,26.208,13.328,26.208,15.064C26.208,21.168,22.468,22.512,18.904,22.905C19.478,23.396,19.99,24.366,19.99,25.848C19.99,27.973,19.97,29.686,19.97,30.207C19.97,30.632,20.258,31.127,21.07,30.97C27.42,28.865,32,22.911,32,15.893C32,7.115,24.836,0,15.998,0ZZ" style="fill: rgb(115, 115, 115); fill-opacity: 1;"/></g></g></g></g><g id="shape-64571460-4ebc-11ed-be16-f3c9284c3c9a" rx="0" ry="0" style="fill: rgb(0, 0, 0);"/><g id="shape-64571461-4ebc-11ed-be16-f3c9284c3c9a" rx="0" ry="0" style="fill: rgb(0, 0, 0);"/><g id="shape-64571462-4ebc-11ed-be16-f3c9284c3c9a" rx="0" ry="0" style="fill: rgb(0, 0, 0);"/><g id="shape-64571463-4ebc-11ed-be16-f3c9284c3c9a" rx="0" ry="0" style="fill: rgb(0, 0, 0);"/><g id="shape-64571464-4ebc-11ed-be16-f3c9284c3c9a" rx="0" ry="0" style="fill: rgb(0, 0, 0);"/><g id="shape-64571465-4ebc-11ed-be16-f3c9284c3c9a" rx="0" ry="0" style="fill: rgb(0, 0, 0);"/><g id="shape-64571466-4ebc-11ed-be16-f3c9284c3c9a" rx="0" ry="0" style="fill: rgb(0, 0, 0);"/><g id="shape-64571467-4ebc-11ed-be16-f3c9284c3c9a" rx="0" ry="0" style="fill: rgb(0, 0, 0);"/><g id="shape-64571468-4ebc-11ed-be16-f3c9284c3c9a" rx="0" ry="0" style="fill: rgb(0, 0, 0);"/><g id="shape-64571469-4ebc-11ed-be16-f3c9284c3c9a" rx="0" ry="0" style="fill: rgb(0, 0, 0);"/><g id="shape-6457146a-4ebc-11ed-be16-f3c9284c3c9a" rx="0" ry="0" style="fill: rgb(0, 0, 0);"/><g id="shape-6457146b-4ebc-11ed-be16-f3c9284c3c9a" rx="0" ry="0" style="fill: rgb(0, 0, 0);"/><g id="shape-6457146c-4ebc-11ed-be16-f3c9284c3c9a" rx="0" ry="0" style="fill: rgb(0, 0, 0);"/><g id="shape-6457146d-4ebc-11ed-be16-f3c9284c3c9a" rx="0" ry="0" style="fill: rgb(0, 0, 0);"/><g id="shape-6457146e-4ebc-11ed-be16-f3c9284c3c9a" rx="0" ry="0" style="fill: rgb(0, 0, 0);"/></g></svg>