<svg xmlns:xlink="http://www.w3.org/1999/xlink" width="32" xmlns="http://www.w3.org/2000/svg" height="32" id="screenshot-6457145d-4ebc-11ed-be16-f3c9284c3c9a" viewBox="-0 0 32 32" style="-webkit-print-color-adjust: exact;" fill="none" version="1.1"><g xmlns:xlink="http://www.w3.org/1999/xlink" xml:space="preserve" x="0px" id="shape-6457145d-4ebc-11ed-be16-f3c9284c3c9a" style="fill: rgb(0, 0, 0);" ry="0" rx="0" y="0px" version="1.1"><g id="shape-64571488-4ebc-11ed-be16-f3c9284c3c9a" rx="0" ry="0" style="fill: rgb(0, 0, 0);"><g id="shape-6457149a-4ebc-11ed-be16-f3c9284c3c9a" rx="0" ry="0" style="fill: rgb(0, 0, 0);"><g id="shape-6457149b-4ebc-11ed-be16-f3c9284c3c9a"><g id="fills-6457149b-4ebc-11ed-be16-f3c9284c3c9a"><rect rx="0" ry="0" x="-5.684341886080802e-14" y="10" transform="matrix(1,0,0,1,0,0)" width="7" height="22" style="fill: rgb(115, 115, 115); fill-opacity: 1;"/></g></g></g></g><g id="shape-64571489-4ebc-11ed-be16-f3c9284c3c9a" rx="0" ry="0" style="fill: rgb(0, 0, 0);"><g id="shape-6457149c-4ebc-11ed-be16-f3c9284c3c9a" rx="0" ry="0" style="fill: rgb(0, 0, 0);"><g id="shape-6457149d-4ebc-11ed-be16-f3c9284c3c9a"><g id="fills-6457149d-4ebc-11ed-be16-f3c9284c3c9a"><path rx="0" ry="0" d="M26.648,10.258C26.572,10.234,26.5,10.208,26.42,10.186C26.324,10.164,26.228,10.146,26.13,10.13C25.75,10.054,25.334,10,24.846,10C20.674,10,18.028,13.034,17.156,14.206L17.156,10L10,10L10,32L17.156,32L17.156,20C17.156,20,22.564,12.468,24.846,18C24.846,22.938,24.846,32,24.846,32L32,32L32,17.154C32,13.83,29.722,11.06,26.648,10.258ZZ" style="fill: rgb(115, 115, 115); fill-opacity: 1;"/></g></g></g></g><g id="shape-6457148a-4ebc-11ed-be16-f3c9284c3c9a" rx="0" ry="0" style="fill: rgb(0, 0, 0);"><g id="shape-6457149e-4ebc-11ed-be16-f3c9284c3c9a" rx="0" ry="0" style="fill: rgb(0, 0, 0);"><g id="shape-6457149f-4ebc-11ed-be16-f3c9284c3c9a"><g id="fills-6457149f-4ebc-11ed-be16-f3c9284c3c9a"><ellipse rx="3.5" ry="3.5" cx="3.499999999999943" cy="3.5" transform="matrix(1,0,0,1,0,0)" style="fill: rgb(115, 115, 115); fill-opacity: 1;"/></g></g></g></g><g id="shape-6457148b-4ebc-11ed-be16-f3c9284c3c9a" rx="0" ry="0" style="fill: rgb(0, 0, 0);"/><g id="shape-6457148c-4ebc-11ed-be16-f3c9284c3c9a" rx="0" ry="0" style="fill: rgb(0, 0, 0);"/><g id="shape-6457148d-4ebc-11ed-be16-f3c9284c3c9a" rx="0" ry="0" style="fill: rgb(0, 0, 0);"/><g id="shape-6457148e-4ebc-11ed-be16-f3c9284c3c9a" rx="0" ry="0" style="fill: rgb(0, 0, 0);"/><g id="shape-6457148f-4ebc-11ed-be16-f3c9284c3c9a" rx="0" ry="0" style="fill: rgb(0, 0, 0);"/><g id="shape-64571490-4ebc-11ed-be16-f3c9284c3c9a" rx="0" ry="0" style="fill: rgb(0, 0, 0);"/><g id="shape-64571491-4ebc-11ed-be16-f3c9284c3c9a" rx="0" ry="0" style="fill: rgb(0, 0, 0);"/><g id="shape-64571492-4ebc-11ed-be16-f3c9284c3c9a" rx="0" ry="0" style="fill: rgb(0, 0, 0);"/><g id="shape-64571493-4ebc-11ed-be16-f3c9284c3c9a" rx="0" ry="0" style="fill: rgb(0, 0, 0);"/><g id="shape-64571494-4ebc-11ed-be16-f3c9284c3c9a" rx="0" ry="0" style="fill: rgb(0, 0, 0);"/><g id="shape-64571495-4ebc-11ed-be16-f3c9284c3c9a" rx="0" ry="0" style="fill: rgb(0, 0, 0);"/><g id="shape-64571496-4ebc-11ed-be16-f3c9284c3c9a" rx="0" ry="0" style="fill: rgb(0, 0, 0);"/><g id="shape-64571497-4ebc-11ed-be16-f3c9284c3c9a" rx="0" ry="0" style="fill: rgb(0, 0, 0);"/><g id="shape-64571498-4ebc-11ed-be16-f3c9284c3c9a" rx="0" ry="0" style="fill: rgb(0, 0, 0);"/><g id="shape-64571499-4ebc-11ed-be16-f3c9284c3c9a" rx="0" ry="0" style="fill: rgb(0, 0, 0);"/></g></svg>