<svg xmlns:xlink="http://www.w3.org/1999/xlink" width="32" xmlns="http://www.w3.org/2000/svg" height="32" id="screenshot-47246390-4fb7-11ed-be19-f3c9284c3c9a" viewBox="0 -0 32 32" style="-webkit-print-color-adjust: exact;" fill="none" version="1.1"><g xmlns:xlink="http://www.w3.org/1999/xlink" xml:space="preserve" x="0px" id="shape-47246390-4fb7-11ed-be19-f3c9284c3c9a" style="fill: rgb(0, 0, 0);" ry="0" rx="0" y="0px" version="1.1"><g id="shape-4724ffd0-4fb7-11ed-be19-f3c9284c3c9a" rx="0" ry="0" style="fill: rgb(0, 0, 0);"><g id="shape-47254df0-4fb7-11ed-be19-f3c9284c3c9a" rx="0" ry="0" style="fill: rgb(0, 0, 0);"><g id="shape-4725ea30-4fb7-11ed-be19-f3c9284c3c9a"><g id="fills-4725ea30-4fb7-11ed-be19-f3c9284c3c9a"><path rx="0" ry="0" d="M31.221,18.235C30.894,18.152,30.567,18.235,30.28,18.44C29.216,19.344,27.989,20.084,26.638,20.577C25.37,21.07,23.979,21.316,22.506,21.316C19.191,21.316,16.163,19.96,13.994,17.783C11.826,15.605,10.475,12.564,10.475,9.236C10.475,7.839,10.721,6.483,11.13,5.25C11.58,3.935,12.235,2.743,13.094,1.716C13.462,1.264,13.381,0.607,12.93,0.237C12.644,0.031,12.317,-0.051,11.989,0.031C8.511,0.977,5.483,3.072,3.314,5.866C1.228,8.619,0,12.03,0,15.728C0,20.207,1.8,24.275,4.747,27.233C7.693,30.192,11.703,32,16.204,32C19.969,32,23.447,30.685,26.229,28.507C29.053,26.288,31.099,23.124,31.958,19.508C32.122,18.933,31.794,18.358,31.221,18.235ZZ" style="fill: rgb(115, 115, 115); fill-opacity: 1;"/></g></g></g></g><g id="shape-47263850-4fb7-11ed-be19-f3c9284c3c9a" rx="0" ry="0" style="fill: rgb(0, 0, 0);"/><g id="shape-47265f60-4fb7-11ed-be19-f3c9284c3c9a" rx="0" ry="0" style="fill: rgb(0, 0, 0);"/><g id="shape-4726ad80-4fb7-11ed-be19-f3c9284c3c9a" rx="0" ry="0" style="fill: rgb(0, 0, 0);"/><g id="shape-4726d490-4fb7-11ed-be19-f3c9284c3c9a" rx="0" ry="0" style="fill: rgb(0, 0, 0);"/><g id="shape-4726fba0-4fb7-11ed-be19-f3c9284c3c9a" rx="0" ry="0" style="fill: rgb(0, 0, 0);"/><g id="shape-472722b0-4fb7-11ed-be19-f3c9284c3c9a" rx="0" ry="0" style="fill: rgb(0, 0, 0);"/><g id="shape-472770d0-4fb7-11ed-be19-f3c9284c3c9a" rx="0" ry="0" style="fill: rgb(0, 0, 0);"/><g id="shape-47280d10-4fb7-11ed-be19-f3c9284c3c9a" rx="0" ry="0" style="fill: rgb(0, 0, 0);"/><g id="shape-47283420-4fb7-11ed-be19-f3c9284c3c9a" rx="0" ry="0" style="fill: rgb(0, 0, 0);"/><g id="shape-47288240-4fb7-11ed-be19-f3c9284c3c9a" rx="0" ry="0" style="fill: rgb(0, 0, 0);"/><g id="shape-4728a950-4fb7-11ed-be19-f3c9284c3c9a" rx="0" ry="0" style="fill: rgb(0, 0, 0);"/><g id="shape-4728d060-4fb7-11ed-be19-f3c9284c3c9a" rx="0" ry="0" style="fill: rgb(0, 0, 0);"/><g id="shape-47291e80-4fb7-11ed-be19-f3c9284c3c9a" rx="0" ry="0" style="fill: rgb(0, 0, 0);"/><g id="shape-47294590-4fb7-11ed-be19-f3c9284c3c9a" rx="0" ry="0" style="fill: rgb(0, 0, 0);"/><g id="shape-47296ca0-4fb7-11ed-be19-f3c9284c3c9a" rx="0" ry="0" style="fill: rgb(0, 0, 0);"/></g></svg>