<svg xmlns:xlink="http://www.w3.org/1999/xlink" width="32" xmlns="http://www.w3.org/2000/svg" height="32" id="screenshot-afdf1624-d160-8024-8001-78710153fece" viewBox="-0 0 32 32" style="-webkit-print-color-adjust: exact;" fill="none" version="1.1"><g xmlns:xlink="http://www.w3.org/1999/xlink" xml:space="preserve" x="0px" id="shape-afdf1624-d160-8024-8001-78710153fece" style="fill: rgb(0, 0, 0);" ry="0" rx="0" y="0px" version="1.1"><g id="shape-afdf1624-d160-8024-8001-78710153fed0" rx="0" ry="0" style="fill: rgb(0, 0, 0);"><g id="shape-afdf1624-d160-8024-8001-7871015400e9" rx="0" ry="0" style="fill: rgb(0, 0, 0);"><g id="shape-afdf1624-d160-8024-8001-7871015400ea" rx="0" ry="0" style="fill: rgb(0, 0, 0);"><g id="shape-afdf1624-d160-8024-8001-7871015400eb"><g id="fills-afdf1624-d160-8024-8001-7871015400eb"><path rx="0" ry="0" d="M21.642,10.358C20.211,8.926,18.189,8,16,8C13.811,8,11.789,8.884,10.358,10.358C8.926,11.789,8,13.811,8,16C8,18.189,8.926,20.211,10.358,21.642C11.789,23.074,13.811,24,16,24C18.189,24,20.211,23.116,21.642,21.642C23.074,20.211,24,18.189,24,16C24,13.811,23.116,11.789,21.642,10.358ZZ" style="fill: rgb(163, 163, 163); fill-opacity: 1;"/></g></g><g id="shape-afdf1624-d160-8024-8001-7871015400ec"><g id="fills-afdf1624-d160-8024-8001-7871015400ec"><path rx="0" ry="0" d="M16,5C16.538,5,17,4.535,17,3.992L17,1.008C17,0.465,16.538,0,16,0C15.462,0,15,0.465,15,1.008L15,3.992C15,4.535,15.462,5,16,5ZZ" style="fill: rgb(163, 163, 163); fill-opacity: 1;"/></g></g><g id="shape-afdf1624-d160-8024-8001-7871015400ed"><g id="fills-afdf1624-d160-8024-8001-7871015400ed"><path rx="0" ry="0" d="M24.642,7.717L26.717,5.642C27.094,5.264,27.094,4.66,26.717,4.283C26.34,3.906,25.736,3.906,25.358,4.283L23.283,6.358C22.906,6.736,22.906,7.34,23.283,7.717C23.623,8.094,24.226,8.094,24.642,7.717ZZ" style="fill: rgb(163, 163, 163); fill-opacity: 1;"/></g></g><g id="shape-afdf1624-d160-8024-8001-7871015400ee"><g id="fills-afdf1624-d160-8024-8001-7871015400ee"><path rx="0" ry="0" d="M30.992,15L28.008,15C27.465,15,27,15.462,27,16C27,16.538,27.465,17,28.008,17L30.992,17C31.535,17,32,16.538,32,16C32,15.462,31.535,15,30.992,15ZZ" style="fill: rgb(163, 163, 163); fill-opacity: 1;"/></g></g><g id="shape-afdf1624-d160-8024-8001-7871015400ef"><g id="fills-afdf1624-d160-8024-8001-7871015400ef"><path rx="0" ry="0" d="M24.642,23.283C24.264,22.906,23.66,22.906,23.283,23.283C22.906,23.66,22.906,24.264,23.283,24.642L25.358,26.717C25.736,27.094,26.34,27.094,26.717,26.717C27.094,26.34,27.094,25.736,26.717,25.358L24.642,23.283ZZ" style="fill: rgb(163, 163, 163); fill-opacity: 1;"/></g></g><g id="shape-afdf1624-d160-8024-8001-7871015400f0"><g id="fills-afdf1624-d160-8024-8001-7871015400f0"><path rx="0" ry="0" d="M16,27C15.462,27,15,27.465,15,28.008L15,30.992C15,31.535,15.462,32,16,32C16.538,32,17,31.535,17,30.992L17,28.008C17,27.465,16.538,27,16,27ZZ" style="fill: rgb(163, 163, 163); fill-opacity: 1;"/></g></g><g id="shape-afdf1624-d160-8024-8001-7871015400f1"><g id="fills-afdf1624-d160-8024-8001-7871015400f1"><path rx="0" ry="0" d="M6.358,23.283L4.283,25.358C3.906,25.736,3.906,26.34,4.283,26.717C4.66,27.094,5.264,27.094,5.642,26.717L7.717,24.642C8.094,24.264,8.094,23.66,7.717,23.283C7.377,22.906,6.774,22.906,6.358,23.283ZZ" style="fill: rgb(163, 163, 163); fill-opacity: 1;"/></g></g><g id="shape-afdf1624-d160-8024-8001-7871015400f2"><g id="fills-afdf1624-d160-8024-8001-7871015400f2"><path rx="0" ry="0" d="M5,16C5,15.462,4.535,15,3.992,15L1.008,15C0.465,15,0,15.462,0,16C0,16.538,0.465,17,1.008,17L3.992,17C4.535,17,5,16.538,5,16ZZ" style="fill: rgb(163, 163, 163); fill-opacity: 1;"/></g></g><g id="shape-afdf1624-d160-8024-8001-7871015400f3"><g id="fills-afdf1624-d160-8024-8001-7871015400f3"><path rx="0" ry="0" d="M6.358,7.717C6.736,8.094,7.34,8.094,7.717,7.717C8.094,7.34,8.094,6.736,7.717,6.358L5.642,4.283C5.264,3.906,4.66,3.906,4.283,4.283C3.906,4.66,3.906,5.264,4.283,5.642L6.358,7.717ZZ" style="fill: rgb(163, 163, 163); fill-opacity: 1;"/></g></g></g></g></g><g id="shape-afdf1624-d160-8024-8001-78710153fed1" rx="0" ry="0" style="fill: rgb(0, 0, 0);"/><g id="shape-afdf1624-d160-8024-8001-7871015400db" rx="0" ry="0" style="fill: rgb(0, 0, 0);"/><g id="shape-afdf1624-d160-8024-8001-7871015400dc" rx="0" ry="0" style="fill: rgb(0, 0, 0);"/><g id="shape-afdf1624-d160-8024-8001-7871015400dd" rx="0" ry="0" style="fill: rgb(0, 0, 0);"/><g id="shape-afdf1624-d160-8024-8001-7871015400de" rx="0" ry="0" style="fill: rgb(0, 0, 0);"/><g id="shape-afdf1624-d160-8024-8001-7871015400df" rx="0" ry="0" style="fill: rgb(0, 0, 0);"/><g id="shape-afdf1624-d160-8024-8001-7871015400e0" rx="0" ry="0" style="fill: rgb(0, 0, 0);"/><g id="shape-afdf1624-d160-8024-8001-7871015400e1" rx="0" ry="0" style="fill: rgb(0, 0, 0);"/><g id="shape-afdf1624-d160-8024-8001-7871015400e2" rx="0" ry="0" style="fill: rgb(0, 0, 0);"/><g id="shape-afdf1624-d160-8024-8001-7871015400e3" rx="0" ry="0" style="fill: rgb(0, 0, 0);"/><g id="shape-afdf1624-d160-8024-8001-7871015400e4" rx="0" ry="0" style="fill: rgb(0, 0, 0);"/><g id="shape-afdf1624-d160-8024-8001-7871015400e5" rx="0" ry="0" style="fill: rgb(0, 0, 0);"/><g id="shape-afdf1624-d160-8024-8001-7871015400e6" rx="0" ry="0" style="fill: rgb(0, 0, 0);"/><g id="shape-afdf1624-d160-8024-8001-7871015400e7" rx="0" ry="0" style="fill: rgb(0, 0, 0);"/><g id="shape-afdf1624-d160-8024-8001-7871015400e8" rx="0" ry="0" style="fill: rgb(0, 0, 0);"/></g></svg>