<svg xmlns:xlink="http://www.w3.org/1999/xlink" width="32" xmlns="http://www.w3.org/2000/svg" height="32" id="screenshot-6457145c-4ebc-11ed-be16-f3c9284c3c9a" viewBox="0 0 32 32" style="-webkit-print-color-adjust: exact;" fill="none" version="1.1"><g xmlns:xlink="http://www.w3.org/1999/xlink" xml:space="preserve" x="0px" id="shape-6457145c-4ebc-11ed-be16-f3c9284c3c9a" style="fill: rgb(0, 0, 0);" ry="0" rx="0" y="0px" version="1.1"><g id="shape-64571472-4ebc-11ed-be16-f3c9284c3c9a" rx="0" ry="0" style="fill: rgb(0, 0, 0);"><g id="shape-64571483-4ebc-11ed-be16-f3c9284c3c9a" rx="0" ry="0" style="fill: rgb(0, 0, 0);"><g id="shape-64571484-4ebc-11ed-be16-f3c9284c3c9a"><g id="fills-64571484-4ebc-11ed-be16-f3c9284c3c9a"><path rx="0" ry="0" d="M31,0L23.356,0L12,19.454L19.317,32L26.961,32L19.644,19.454Z" style="fill: rgb(115, 115, 115); fill-opacity: 1;"/></g></g></g></g><g id="shape-64571473-4ebc-11ed-be16-f3c9284c3c9a" rx="0" ry="0" style="fill: rgb(0, 0, 0);"><g id="shape-64571485-4ebc-11ed-be16-f3c9284c3c9a" rx="0" ry="0" style="fill: rgb(0, 0, 0);"><g id="shape-64571486-4ebc-11ed-be16-f3c9284c3c9a"><g id="fills-64571486-4ebc-11ed-be16-f3c9284c3c9a"><path rx="0" ry="0" d="M9.055,6L2.236,6L6.182,13.182L1,22L7.818,22L13,13.182Z" style="fill: rgb(115, 115, 115); fill-opacity: 1;"/></g></g></g></g><g id="shape-64571474-4ebc-11ed-be16-f3c9284c3c9a" rx="0" ry="0" style="fill: rgb(0, 0, 0);"/><g id="shape-64571475-4ebc-11ed-be16-f3c9284c3c9a" rx="0" ry="0" style="fill: rgb(0, 0, 0);"/><g id="shape-64571476-4ebc-11ed-be16-f3c9284c3c9a" rx="0" ry="0" style="fill: rgb(0, 0, 0);"/><g id="shape-64571477-4ebc-11ed-be16-f3c9284c3c9a" rx="0" ry="0" style="fill: rgb(0, 0, 0);"/><g id="shape-64571478-4ebc-11ed-be16-f3c9284c3c9a" rx="0" ry="0" style="fill: rgb(0, 0, 0);"/><g id="shape-64571479-4ebc-11ed-be16-f3c9284c3c9a" rx="0" ry="0" style="fill: rgb(0, 0, 0);"/><g id="shape-6457147a-4ebc-11ed-be16-f3c9284c3c9a" rx="0" ry="0" style="fill: rgb(0, 0, 0);"/><g id="shape-6457147b-4ebc-11ed-be16-f3c9284c3c9a" rx="0" ry="0" style="fill: rgb(0, 0, 0);"/><g id="shape-6457147c-4ebc-11ed-be16-f3c9284c3c9a" rx="0" ry="0" style="fill: rgb(0, 0, 0);"/><g id="shape-6457147d-4ebc-11ed-be16-f3c9284c3c9a" rx="0" ry="0" style="fill: rgb(0, 0, 0);"/><g id="shape-6457147e-4ebc-11ed-be16-f3c9284c3c9a" rx="0" ry="0" style="fill: rgb(0, 0, 0);"/><g id="shape-6457147f-4ebc-11ed-be16-f3c9284c3c9a" rx="0" ry="0" style="fill: rgb(0, 0, 0);"/><g id="shape-64571480-4ebc-11ed-be16-f3c9284c3c9a" rx="0" ry="0" style="fill: rgb(0, 0, 0);"/><g id="shape-64571481-4ebc-11ed-be16-f3c9284c3c9a" rx="0" ry="0" style="fill: rgb(0, 0, 0);"/><g id="shape-64571482-4ebc-11ed-be16-f3c9284c3c9a" rx="0" ry="0" style="fill: rgb(0, 0, 0);"/></g></svg>